<mxfile host="app.diagrams.net" agent="Mozilla/5.0 (Windows NT 10.0; Win64; x64) AppleWebKit/537.36 (KHTML, like Gecko) Chrome/128.0.0.0 Safari/537.36 Edg/128.0.0.0" version="24.7.14">
  <diagram id="C5RBs43oDa-KdzZeNtuy" name="Page-1">
    <mxGraphModel dx="693" dy="428" grid="1" gridSize="10" guides="1" tooltips="1" connect="1" arrows="1" fold="1" page="1" pageScale="1" pageWidth="827" pageHeight="1169" math="0" shadow="0">
      <root>
        <mxCell id="WIyWlLk6GJQsqaUBKTNV-0" />
        <mxCell id="WIyWlLk6GJQsqaUBKTNV-1" parent="WIyWlLk6GJQsqaUBKTNV-0" />
        <mxCell id="zkfFHV4jXpPFQw0GAbJ--13" value="Gimnasio" style="swimlane;fontStyle=0;align=center;verticalAlign=top;childLayout=stackLayout;horizontal=1;startSize=26;horizontalStack=0;resizeParent=1;resizeLast=0;collapsible=1;marginBottom=0;rounded=0;shadow=0;strokeWidth=1;" parent="WIyWlLk6GJQsqaUBKTNV-1" vertex="1">
          <mxGeometry x="244" width="186" height="138" as="geometry">
            <mxRectangle x="340" y="380" width="170" height="26" as="alternateBounds" />
          </mxGeometry>
        </mxCell>
        <mxCell id="zkfFHV4jXpPFQw0GAbJ--14" value="- Nombre: String" style="text;align=left;verticalAlign=top;spacingLeft=4;spacingRight=4;overflow=hidden;rotatable=0;points=[[0,0.5],[1,0.5]];portConstraint=eastwest;" parent="zkfFHV4jXpPFQw0GAbJ--13" vertex="1">
          <mxGeometry y="26" width="186" height="26" as="geometry" />
        </mxCell>
        <mxCell id="AtAmaWHt1n32bGVHm5qY-0" value="- Clases: clase[]" style="text;align=left;verticalAlign=top;spacingLeft=4;spacingRight=4;overflow=hidden;rotatable=0;points=[[0,0.5],[1,0.5]];portConstraint=eastwest;" vertex="1" parent="zkfFHV4jXpPFQw0GAbJ--13">
          <mxGeometry y="52" width="186" height="26" as="geometry" />
        </mxCell>
        <mxCell id="zkfFHV4jXpPFQw0GAbJ--15" value="" style="line;html=1;strokeWidth=1;align=left;verticalAlign=middle;spacingTop=-1;spacingLeft=3;spacingRight=3;rotatable=0;labelPosition=right;points=[];portConstraint=eastwest;" parent="zkfFHV4jXpPFQw0GAbJ--13" vertex="1">
          <mxGeometry y="78" width="186" height="8" as="geometry" />
        </mxCell>
        <mxCell id="AtAmaWHt1n32bGVHm5qY-5" value="+ ObtenerInfoClases(): void" style="text;align=left;verticalAlign=top;spacingLeft=4;spacingRight=4;overflow=hidden;rotatable=0;points=[[0,0.5],[1,0.5]];portConstraint=eastwest;" vertex="1" parent="zkfFHV4jXpPFQw0GAbJ--13">
          <mxGeometry y="86" width="186" height="26" as="geometry" />
        </mxCell>
        <mxCell id="AtAmaWHt1n32bGVHm5qY-6" value="+ AñadirClase(clase: Clase): void" style="text;align=left;verticalAlign=top;spacingLeft=4;spacingRight=4;overflow=hidden;rotatable=0;points=[[0,0.5],[1,0.5]];portConstraint=eastwest;" vertex="1" parent="zkfFHV4jXpPFQw0GAbJ--13">
          <mxGeometry y="112" width="186" height="26" as="geometry" />
        </mxCell>
        <mxCell id="AtAmaWHt1n32bGVHm5qY-29" style="edgeStyle=orthogonalEdgeStyle;rounded=0;orthogonalLoop=1;jettySize=auto;html=1;endArrow=diamondThin;endFill=1;endSize=26;" edge="1" parent="WIyWlLk6GJQsqaUBKTNV-1" source="AtAmaWHt1n32bGVHm5qY-1" target="zkfFHV4jXpPFQw0GAbJ--13">
          <mxGeometry relative="1" as="geometry">
            <Array as="points">
              <mxPoint x="320" y="230" />
              <mxPoint x="320" y="200" />
              <mxPoint x="337" y="200" />
            </Array>
          </mxGeometry>
        </mxCell>
        <mxCell id="AtAmaWHt1n32bGVHm5qY-33" value="1" style="edgeLabel;html=1;align=center;verticalAlign=middle;resizable=0;points=[];" vertex="1" connectable="0" parent="AtAmaWHt1n32bGVHm5qY-29">
          <mxGeometry x="0.4521" y="-1" relative="1" as="geometry">
            <mxPoint x="9" as="offset" />
          </mxGeometry>
        </mxCell>
        <mxCell id="AtAmaWHt1n32bGVHm5qY-34" value="0..*" style="edgeLabel;html=1;align=center;verticalAlign=middle;resizable=0;points=[];" vertex="1" connectable="0" parent="AtAmaWHt1n32bGVHm5qY-29">
          <mxGeometry x="-0.5342" y="-4" relative="1" as="geometry">
            <mxPoint as="offset" />
          </mxGeometry>
        </mxCell>
        <mxCell id="AtAmaWHt1n32bGVHm5qY-1" value="Clase" style="swimlane;fontStyle=0;align=center;verticalAlign=top;childLayout=stackLayout;horizontal=1;startSize=26;horizontalStack=0;resizeParent=1;resizeLast=0;collapsible=1;marginBottom=0;rounded=0;shadow=0;strokeWidth=1;" vertex="1" parent="WIyWlLk6GJQsqaUBKTNV-1">
          <mxGeometry x="120" y="210" width="170" height="216" as="geometry">
            <mxRectangle x="340" y="380" width="170" height="26" as="alternateBounds" />
          </mxGeometry>
        </mxCell>
        <mxCell id="AtAmaWHt1n32bGVHm5qY-2" value="- Nombre: String" style="text;align=left;verticalAlign=top;spacingLeft=4;spacingRight=4;overflow=hidden;rotatable=0;points=[[0,0.5],[1,0.5]];portConstraint=eastwest;" vertex="1" parent="AtAmaWHt1n32bGVHm5qY-1">
          <mxGeometry y="26" width="170" height="26" as="geometry" />
        </mxCell>
        <mxCell id="AtAmaWHt1n32bGVHm5qY-3" value="- Instructor: Instructor" style="text;align=left;verticalAlign=top;spacingLeft=4;spacingRight=4;overflow=hidden;rotatable=0;points=[[0,0.5],[1,0.5]];portConstraint=eastwest;" vertex="1" parent="AtAmaWHt1n32bGVHm5qY-1">
          <mxGeometry y="52" width="170" height="26" as="geometry" />
        </mxCell>
        <mxCell id="AtAmaWHt1n32bGVHm5qY-7" value="- Costo: double" style="text;align=left;verticalAlign=top;spacingLeft=4;spacingRight=4;overflow=hidden;rotatable=0;points=[[0,0.5],[1,0.5]];portConstraint=eastwest;" vertex="1" parent="AtAmaWHt1n32bGVHm5qY-1">
          <mxGeometry y="78" width="170" height="26" as="geometry" />
        </mxCell>
        <mxCell id="AtAmaWHt1n32bGVHm5qY-8" value="-/ lugaresDisponibles: int" style="text;align=left;verticalAlign=top;spacingLeft=4;spacingRight=4;overflow=hidden;rotatable=0;points=[[0,0.5],[1,0.5]];portConstraint=eastwest;" vertex="1" parent="AtAmaWHt1n32bGVHm5qY-1">
          <mxGeometry y="104" width="170" height="26" as="geometry" />
        </mxCell>
        <mxCell id="AtAmaWHt1n32bGVHm5qY-4" value="" style="line;html=1;strokeWidth=1;align=left;verticalAlign=middle;spacingTop=-1;spacingLeft=3;spacingRight=3;rotatable=0;labelPosition=right;points=[];portConstraint=eastwest;" vertex="1" parent="AtAmaWHt1n32bGVHm5qY-1">
          <mxGeometry y="130" width="170" height="8" as="geometry" />
        </mxCell>
        <mxCell id="AtAmaWHt1n32bGVHm5qY-42" value="+ MostrarInfo(): void" style="text;align=left;verticalAlign=top;spacingLeft=4;spacingRight=4;overflow=hidden;rotatable=0;points=[[0,0.5],[1,0.5]];portConstraint=eastwest;" vertex="1" parent="AtAmaWHt1n32bGVHm5qY-1">
          <mxGeometry y="138" width="170" height="26" as="geometry" />
        </mxCell>
        <mxCell id="AtAmaWHt1n32bGVHm5qY-43" value="+ QuitarLugar(): void" style="text;align=left;verticalAlign=top;spacingLeft=4;spacingRight=4;overflow=hidden;rotatable=0;points=[[0,0.5],[1,0.5]];portConstraint=eastwest;" vertex="1" parent="AtAmaWHt1n32bGVHm5qY-1">
          <mxGeometry y="164" width="170" height="26" as="geometry" />
        </mxCell>
        <mxCell id="AtAmaWHt1n32bGVHm5qY-9" value="+ AñadirLugar(): void" style="text;align=left;verticalAlign=top;spacingLeft=4;spacingRight=4;overflow=hidden;rotatable=0;points=[[0,0.5],[1,0.5]];portConstraint=eastwest;" vertex="1" parent="AtAmaWHt1n32bGVHm5qY-1">
          <mxGeometry y="190" width="170" height="26" as="geometry" />
        </mxCell>
        <mxCell id="AtAmaWHt1n32bGVHm5qY-11" value="Miembro" style="swimlane;fontStyle=0;align=center;verticalAlign=top;childLayout=stackLayout;horizontal=1;startSize=26;horizontalStack=0;resizeParent=1;resizeLast=0;collapsible=1;marginBottom=0;rounded=0;shadow=0;strokeWidth=1;" vertex="1" parent="WIyWlLk6GJQsqaUBKTNV-1">
          <mxGeometry x="520" y="170" width="186" height="164" as="geometry">
            <mxRectangle x="340" y="380" width="170" height="26" as="alternateBounds" />
          </mxGeometry>
        </mxCell>
        <mxCell id="AtAmaWHt1n32bGVHm5qY-12" value="- Nombre: String" style="text;align=left;verticalAlign=top;spacingLeft=4;spacingRight=4;overflow=hidden;rotatable=0;points=[[0,0.5],[1,0.5]];portConstraint=eastwest;" vertex="1" parent="AtAmaWHt1n32bGVHm5qY-11">
          <mxGeometry y="26" width="186" height="26" as="geometry" />
        </mxCell>
        <mxCell id="AtAmaWHt1n32bGVHm5qY-13" value="- Clases: clase[]" style="text;align=left;verticalAlign=top;spacingLeft=4;spacingRight=4;overflow=hidden;rotatable=0;points=[[0,0.5],[1,0.5]];portConstraint=eastwest;" vertex="1" parent="AtAmaWHt1n32bGVHm5qY-11">
          <mxGeometry y="52" width="186" height="26" as="geometry" />
        </mxCell>
        <mxCell id="AtAmaWHt1n32bGVHm5qY-17" value="- NroMiembro: int" style="text;align=left;verticalAlign=top;spacingLeft=4;spacingRight=4;overflow=hidden;rotatable=0;points=[[0,0.5],[1,0.5]];portConstraint=eastwest;" vertex="1" parent="AtAmaWHt1n32bGVHm5qY-11">
          <mxGeometry y="78" width="186" height="26" as="geometry" />
        </mxCell>
        <mxCell id="AtAmaWHt1n32bGVHm5qY-14" value="" style="line;html=1;strokeWidth=1;align=left;verticalAlign=middle;spacingTop=-1;spacingLeft=3;spacingRight=3;rotatable=0;labelPosition=right;points=[];portConstraint=eastwest;" vertex="1" parent="AtAmaWHt1n32bGVHm5qY-11">
          <mxGeometry y="104" width="186" height="8" as="geometry" />
        </mxCell>
        <mxCell id="AtAmaWHt1n32bGVHm5qY-16" value="+ UnirseClase(clase: Clase): void" style="text;align=left;verticalAlign=top;spacingLeft=4;spacingRight=4;overflow=hidden;rotatable=0;points=[[0,0.5],[1,0.5]];portConstraint=eastwest;" vertex="1" parent="AtAmaWHt1n32bGVHm5qY-11">
          <mxGeometry y="112" width="186" height="26" as="geometry" />
        </mxCell>
        <mxCell id="AtAmaWHt1n32bGVHm5qY-18" value="+ SalirClase(clase: Clase): void" style="text;align=left;verticalAlign=top;spacingLeft=4;spacingRight=4;overflow=hidden;rotatable=0;points=[[0,0.5],[1,0.5]];portConstraint=eastwest;" vertex="1" parent="AtAmaWHt1n32bGVHm5qY-11">
          <mxGeometry y="138" width="186" height="26" as="geometry" />
        </mxCell>
        <mxCell id="AtAmaWHt1n32bGVHm5qY-20" value="Instructor" style="swimlane;fontStyle=0;align=center;verticalAlign=top;childLayout=stackLayout;horizontal=1;startSize=26;horizontalStack=0;resizeParent=1;resizeLast=0;collapsible=1;marginBottom=0;rounded=0;shadow=0;strokeWidth=1;" vertex="1" parent="WIyWlLk6GJQsqaUBKTNV-1">
          <mxGeometry x="440" y="400" width="186" height="112" as="geometry">
            <mxRectangle x="340" y="380" width="170" height="26" as="alternateBounds" />
          </mxGeometry>
        </mxCell>
        <mxCell id="AtAmaWHt1n32bGVHm5qY-21" value="- Nombre: String" style="text;align=left;verticalAlign=top;spacingLeft=4;spacingRight=4;overflow=hidden;rotatable=0;points=[[0,0.5],[1,0.5]];portConstraint=eastwest;" vertex="1" parent="AtAmaWHt1n32bGVHm5qY-20">
          <mxGeometry y="26" width="186" height="26" as="geometry" />
        </mxCell>
        <mxCell id="AtAmaWHt1n32bGVHm5qY-22" value="- AnioExperiencia: int" style="text;align=left;verticalAlign=top;spacingLeft=4;spacingRight=4;overflow=hidden;rotatable=0;points=[[0,0.5],[1,0.5]];portConstraint=eastwest;" vertex="1" parent="AtAmaWHt1n32bGVHm5qY-20">
          <mxGeometry y="52" width="186" height="26" as="geometry" />
        </mxCell>
        <mxCell id="AtAmaWHt1n32bGVHm5qY-24" value="" style="line;html=1;strokeWidth=1;align=left;verticalAlign=middle;spacingTop=-1;spacingLeft=3;spacingRight=3;rotatable=0;labelPosition=right;points=[];portConstraint=eastwest;" vertex="1" parent="AtAmaWHt1n32bGVHm5qY-20">
          <mxGeometry y="78" width="186" height="8" as="geometry" />
        </mxCell>
        <mxCell id="AtAmaWHt1n32bGVHm5qY-28" value="+ MostrarInfo(): void" style="text;align=left;verticalAlign=top;spacingLeft=4;spacingRight=4;overflow=hidden;rotatable=0;points=[[0,0.5],[1,0.5]];portConstraint=eastwest;" vertex="1" parent="AtAmaWHt1n32bGVHm5qY-20">
          <mxGeometry y="86" width="186" height="26" as="geometry" />
        </mxCell>
        <mxCell id="AtAmaWHt1n32bGVHm5qY-30" style="edgeStyle=orthogonalEdgeStyle;rounded=0;orthogonalLoop=1;jettySize=auto;html=1;endArrow=none;endFill=0;" edge="1" parent="WIyWlLk6GJQsqaUBKTNV-1" source="AtAmaWHt1n32bGVHm5qY-1" target="AtAmaWHt1n32bGVHm5qY-11">
          <mxGeometry relative="1" as="geometry" />
        </mxCell>
        <mxCell id="AtAmaWHt1n32bGVHm5qY-35" value="0..*" style="edgeLabel;html=1;align=center;verticalAlign=middle;resizable=0;points=[];" vertex="1" connectable="0" parent="AtAmaWHt1n32bGVHm5qY-30">
          <mxGeometry x="-0.7949" y="3" relative="1" as="geometry">
            <mxPoint as="offset" />
          </mxGeometry>
        </mxCell>
        <mxCell id="AtAmaWHt1n32bGVHm5qY-36" value="0..*" style="edgeLabel;html=1;align=center;verticalAlign=middle;resizable=0;points=[];" vertex="1" connectable="0" parent="AtAmaWHt1n32bGVHm5qY-30">
          <mxGeometry x="0.6282" y="-1" relative="1" as="geometry">
            <mxPoint as="offset" />
          </mxGeometry>
        </mxCell>
        <mxCell id="AtAmaWHt1n32bGVHm5qY-31" style="edgeStyle=orthogonalEdgeStyle;rounded=0;orthogonalLoop=1;jettySize=auto;html=1;endArrow=diamondThin;endFill=0;startSize=26;endSize=26;" edge="1" parent="WIyWlLk6GJQsqaUBKTNV-1" source="AtAmaWHt1n32bGVHm5qY-1" target="AtAmaWHt1n32bGVHm5qY-20">
          <mxGeometry relative="1" as="geometry">
            <Array as="points">
              <mxPoint x="329" y="370" />
              <mxPoint x="329" y="420" />
            </Array>
          </mxGeometry>
        </mxCell>
        <mxCell id="AtAmaWHt1n32bGVHm5qY-38" value="1" style="edgeLabel;html=1;align=center;verticalAlign=middle;resizable=0;points=[];" vertex="1" connectable="0" parent="AtAmaWHt1n32bGVHm5qY-31">
          <mxGeometry x="0.551" y="-5" relative="1" as="geometry">
            <mxPoint y="15" as="offset" />
          </mxGeometry>
        </mxCell>
        <mxCell id="AtAmaWHt1n32bGVHm5qY-39" value="0..1" style="edgeLabel;html=1;align=center;verticalAlign=middle;resizable=0;points=[];" vertex="1" connectable="0" parent="AtAmaWHt1n32bGVHm5qY-31">
          <mxGeometry x="-0.7687" y="1" relative="1" as="geometry">
            <mxPoint as="offset" />
          </mxGeometry>
        </mxCell>
      </root>
    </mxGraphModel>
  </diagram>
</mxfile>
